<?xml version="1.0" encoding="iso-8859-1"?>
<!-- Generator: Adobe Illustrator 19.0.0, SVG Export Plug-In . SVG Version: 6.00 Build 0)  -->
<svg version="1.1" id="Layer_1" xmlns="http://www.w3.org/2000/svg" xmlns:xlink="http://www.w3.org/1999/xlink" x="0px" y="0px"
	 viewBox="0 0 330.003 330.003" style="enable-background:new 0 0 330.003 330.003;" xml:space="preserve">
<g id="XMLID_138_">
	<path id="XMLID_169_" d="M150.002,105c0-24.813-20.187-45-45-45s-45,20.187-45,45s20.187,45,45,45S150.002,129.813,150.002,105z
		 M90.002,105c0-8.271,6.729-15,15-15s15,6.729,15,15s-6.729,15-15,15S90.002,113.271,90.002,105z"/>
	<path id="XMLID_222_" d="M315.002,30h-58.516L107.944,0.292C106.975,0.098,105.989,0,105.002,0c-57.897,0-105,47.103-105,105
		c0,53.88,40.796,98.403,93.119,104.324l27.329,109.315c1.669,6.677,7.669,11.362,14.552,11.362h59.908
		c0.027,0,0.054,0.003,0.081,0.003c0.47,0,0.943-0.029,1.418-0.075c0.071-0.006,0.142-0.012,0.212-0.02
		c0.42-0.046,0.84-0.109,1.262-0.192c0.126-0.024,0.25-0.054,0.374-0.081c0.128-0.029,0.255-0.052,0.383-0.084
		c0.11-0.027,0.213-0.068,0.322-0.098c0.298-0.081,0.593-0.169,0.884-0.269c0.193-0.066,0.383-0.137,0.572-0.209
		c0.262-0.102,0.52-0.209,0.775-0.325c0.212-0.096,0.42-0.196,0.626-0.302c0.216-0.11,0.428-0.225,0.638-0.346
		c0.227-0.13,0.45-0.265,0.668-0.406c0.179-0.115,0.354-0.235,0.528-0.358c0.227-0.16,0.449-0.325,0.666-0.498
		c0.159-0.126,0.314-0.256,0.468-0.389c0.209-0.181,0.414-0.365,0.612-0.557c0.153-0.147,0.3-0.298,0.447-0.452
		c0.179-0.189,0.355-0.379,0.524-0.576c0.152-0.177,0.298-0.359,0.442-0.543c0.146-0.187,0.287-0.374,0.423-0.566
		c0.149-0.21,0.291-0.425,0.429-0.643c0.115-0.181,0.227-0.363,0.333-0.549c0.136-0.237,0.265-0.478,0.388-0.723
		c0.093-0.184,0.182-0.368,0.268-0.556c0.113-0.249,0.218-0.502,0.318-0.758c0.079-0.202,0.153-0.404,0.223-0.609
		c0.083-0.243,0.159-0.489,0.229-0.738c0.067-0.236,0.127-0.473,0.183-0.712c0.051-0.222,0.098-0.445,0.139-0.671
		c0.051-0.279,0.093-0.56,0.128-0.842c0.024-0.197,0.046-0.395,0.063-0.595c0.026-0.31,0.041-0.621,0.047-0.935
		c0.002-0.11,0.017-0.218,0.017-0.329c0-0.085-0.011-0.168-0.013-0.252c-0.005-0.293-0.022-0.586-0.044-0.88
		c-0.018-0.234-0.038-0.466-0.066-0.697c-0.029-0.234-0.067-0.467-0.107-0.702c-0.049-0.288-0.103-0.573-0.168-0.855
		c-0.02-0.084-0.029-0.168-0.05-0.253l-12.675-50.701c4.976-3.453,7.567-9.729,6.011-15.953l-12.854-51.418L256.486,180h58.516
		c8.284,0,15-6.716,15-15V45C330.002,36.716,323.286,30,315.002,30z M30.002,105c0-40.88,32.878-74.227,73.581-74.987
		l136.419,27.284v95.406l-136.419,27.284C62.88,179.227,30.002,145.88,30.002,105z M123.369,206.623l27.692-5.538L175.79,300
		h-29.076L123.369,206.623z M300.002,150h-30V60h30V150z"/>
</g>
<g>
</g>
<g>
</g>
<g>
</g>
<g>
</g>
<g>
</g>
<g>
</g>
<g>
</g>
<g>
</g>
<g>
</g>
<g>
</g>
<g>
</g>
<g>
</g>
<g>
</g>
<g>
</g>
<g>
</g>
</svg>
